<svg xmlns="http://www.w3.org/2000/svg" viewBox="0 0 24 24" id="lyft">
  <path fill="#E30B88" d="M6.374 16.523c1.734.46 2.728-.498 2.728-.498-.098.63-.68 1.095-1.636 1.189-.727.075-1.65-.169-2.109-.367v3.304c1.177.353 2.414.46 3.637.221 2.208-.428 3.6-2.275 3.6-4.737V7.259H8.98v.023l.001.002v5.311c0 .724-1.116.724-1.116 0V7.284h-3.6v6.236c0 1.119.375 2.538 2.109 3.003z"></path>
  <path fill="#E30B88" d="M4.922 16.458c-.572-.385-1.275-1.311-1.275-2.867V3.783H0v9.771c0 1.021.366 2.116 1.163 2.773 1.359 1.114 3.164.652 3.759.131zM24 13.153a1.22 1.22 0 0 1-1.223-1.217h-.001v-1.034h1.116v-3.61h-1.223a4.813 4.813 0 0 0-4.702-3.793c-2.653 0-4.814 2.162-4.814 4.827v8.422c.75.108 1.659-.014 2.423-.658.802-.658 1.163-1.749 1.163-2.773v-.315h1.819v-3.61h-1.819V8.299c0-1.626 2.447-1.626 2.447 0v3.623c0 2.66 2.156 4.827 4.814 4.827v-3.596z"></path>
</svg>
